<svg width="259" height="224" viewBox="0 0 259 224" fill="none" xmlns="http://www.w3.org/2000/svg">
<path d="M104.027 57.1263L94.2818 58.8368L93.3587 64.1206L90.2813 64.6607L94.4604 41.0277L97.8264 40.437L109.772 61.2399L106.694 61.78L104.027 57.1263ZM102.777 54.9004L96.7575 44.3255L94.6989 56.3183L102.777 54.9004ZM113.7 45.8127C114.115 44.6605 114.841 43.6519 115.879 42.7868C116.916 41.9218 118.173 41.3599 119.647 41.101C121.229 40.8235 122.715 40.948 124.108 41.4747C125.5 42.0014 126.679 42.8848 127.646 44.125C128.609 45.3439 129.248 46.8509 129.563 48.6461C129.874 50.4198 129.788 52.0651 129.306 53.5817C128.823 55.0984 128.008 56.3539 126.861 57.3483C125.735 58.339 124.392 58.9712 122.832 59.245C121.314 59.5113 119.921 59.4145 118.65 58.9546C117.401 58.4909 116.398 57.7968 115.641 56.8722L116.21 60.1099L113.292 60.6219L109.129 36.9001L112.046 36.3881L113.7 45.8127ZM126.582 49.1693C126.349 47.8443 125.879 46.7372 125.173 45.8479C124.466 44.9586 123.608 44.3381 122.599 43.9865C121.611 43.6311 120.573 43.5491 119.483 43.7404C118.414 43.928 117.467 44.3695 116.642 45.0651C115.834 45.7355 115.241 46.6217 114.862 47.7237C114.5 48.8005 114.433 49.9908 114.662 51.2944C114.895 52.6194 115.366 53.7372 116.077 54.6479C116.805 55.5334 117.665 56.1646 118.656 56.5413C119.665 56.8929 120.704 56.975 121.773 56.7874C122.862 56.5961 123.811 56.1652 124.619 55.4948C125.444 54.7992 126.037 53.913 126.399 52.8362C126.757 51.738 126.818 50.5157 126.582 49.1693ZM142.668 55.7635C141.022 56.0523 139.461 55.9409 137.983 55.4292C136.527 54.9138 135.294 54.0397 134.284 52.807C133.292 51.5492 132.637 50.012 132.318 48.1955C132.003 46.4003 132.11 44.7513 132.64 43.2486C133.187 41.7207 134.069 40.4752 135.288 39.5123C136.503 38.528 137.944 37.8896 139.611 37.597C141.278 37.3044 142.851 37.414 144.328 37.9257C145.802 38.416 147.044 39.2775 148.053 40.5102C149.084 41.7392 149.759 43.2619 150.078 45.0784C150.396 46.895 150.272 48.5691 149.703 50.1007C149.153 51.6072 148.259 52.8545 147.023 53.8426C145.786 54.8306 144.335 55.4709 142.668 55.7635ZM142.218 53.199C143.265 53.0152 144.205 52.5969 145.037 51.9441C145.87 51.2912 146.478 50.4245 146.861 49.3439C147.266 48.2596 147.344 47.0122 147.096 45.6017C146.849 44.1912 146.361 43.0432 145.633 42.1576C144.905 41.2721 144.05 40.673 143.07 40.3604C142.086 40.0264 141.071 39.9513 140.024 40.1351C138.955 40.3227 138.015 40.741 137.204 41.39C136.41 42.014 135.833 42.8644 135.471 43.9412C135.109 45.0181 135.052 46.2617 135.3 47.6722C135.551 49.1041 136.019 50.2665 136.705 51.1596C137.412 52.0489 138.246 52.6624 139.209 53.0001C140.167 53.3165 141.17 53.3828 142.218 53.199ZM167.957 32.9194L171.04 50.4863L168.123 50.9983L167.667 48.4018C167.269 49.3969 166.613 50.239 165.698 50.9282C164.801 51.5923 163.755 52.0294 162.558 52.2394C161.19 52.4795 159.913 52.4173 158.725 52.053C157.534 51.6673 156.518 50.9643 155.678 49.9442C154.86 48.9203 154.308 47.5963 154.023 45.9721L152.217 35.6819L155.102 35.1756L156.841 45.081C157.144 46.8121 157.817 48.0709 158.858 48.8574C159.896 49.6226 161.173 49.872 162.69 49.6057C164.25 49.3319 165.395 48.6353 166.124 47.5161C166.853 46.3969 167.056 44.9183 166.733 43.0804L165.039 33.4314L167.957 32.9194ZM176.862 33.8346L178.68 44.1888C178.83 45.0437 179.118 45.6209 179.545 45.9204C179.969 46.1986 180.629 46.2589 181.527 46.1014L183.674 45.7244L184.108 48.1927L181.479 48.6541C179.855 48.9392 178.571 48.779 177.628 48.1735C176.684 47.5681 176.063 46.4105 175.762 44.7008L173.945 34.3466L171.669 34.7461L171.247 32.3418L173.523 31.9424L172.747 27.5186L175.664 27.0066L176.44 31.4303L181.024 30.6258L181.446 33.03L176.862 33.8346ZM214.174 24.477C215.542 24.237 216.811 24.3117 217.981 24.7011C219.147 25.0692 220.139 25.7652 220.957 26.7891C221.776 27.813 222.328 29.137 222.613 30.7612L224.43 41.1155L221.545 41.6219L219.801 31.6844C219.493 29.9319 218.821 28.6731 217.783 27.908C216.763 27.1177 215.516 26.8519 214.042 27.1108C212.524 27.3771 211.403 28.0805 210.678 29.2212C209.949 30.3404 209.746 31.819 210.069 33.6569L211.768 43.3379L208.883 43.8443L207.139 33.9068C206.831 32.1544 206.159 30.8956 205.121 30.1304C204.101 29.3401 202.854 29.0744 201.379 29.3332C199.862 29.5995 198.741 30.303 198.016 31.4436C197.287 32.5628 197.084 34.0414 197.406 35.8793L199.106 45.5604L196.188 46.0724L193.105 28.5054L196.022 27.9934L196.467 30.5259C196.883 29.5056 197.528 28.6654 198.404 28.005C199.3 27.341 200.336 26.9058 201.512 26.6995C202.986 26.4406 204.348 26.5431 205.597 27.0068C206.846 27.4705 207.861 28.2947 208.642 29.4794C208.916 28.1537 209.559 27.0494 210.572 26.1668C211.584 25.2841 212.785 24.7208 214.174 24.477ZM243.584 28.0057C243.681 28.5614 243.753 29.1547 243.797 29.7857L229.756 32.2501C230.167 33.9624 230.993 35.2163 232.234 36.0118C233.493 36.7822 234.892 37.0324 236.43 36.7623C237.691 36.541 238.688 36.0687 239.42 35.3454C240.17 34.597 240.629 33.7012 240.799 32.6581L243.94 32.1067C243.766 33.8776 243.068 35.421 241.845 36.7372C240.618 38.0319 238.958 38.8631 236.863 39.2307C235.197 39.5232 233.635 39.4118 232.179 38.8964C230.744 38.3772 229.532 37.4994 228.544 36.2629C227.552 35.0051 226.897 33.4679 226.578 31.6514C226.259 29.8348 226.343 28.1789 226.83 26.6837C227.316 25.1884 228.148 23.963 229.324 23.0076C230.518 22.0271 231.969 21.3868 233.679 21.0867C235.346 20.7941 236.884 20.8986 238.294 21.4002C239.704 21.9017 240.863 22.7336 241.772 23.8958C242.699 25.0329 243.303 26.4029 243.584 28.0057ZM240.464 27.9255C240.269 26.8143 239.856 25.9064 239.226 25.2019C238.592 24.4761 237.811 23.9852 236.885 23.7292C235.977 23.448 235.01 23.3975 233.984 23.5775C232.509 23.8364 231.331 24.5278 230.449 25.6519C229.588 26.7723 229.229 28.1791 229.372 29.8723L240.464 27.9255ZM248.955 13.7793L251.416 29.8694L248.98 30.297L245.814 14.3307L248.955 13.7793ZM251.468 36.5682C250.912 36.6657 250.409 36.5559 249.956 36.2387C249.504 35.9216 249.229 35.4852 249.132 34.9295C249.034 34.3739 249.144 33.87 249.461 33.4178C249.778 32.9656 250.215 32.6907 250.77 32.5932C251.305 32.4994 251.787 32.613 252.218 32.9339C252.67 33.251 252.945 33.6874 253.043 34.2431C253.14 34.7987 253.03 35.3027 252.713 35.7549C252.417 36.2033 252.002 36.4744 251.468 36.5682Z" fill="white"/>
<path d="M184.363 120.068C183.054 109.5 177.422 99.5298 169.714 92.3419C166.128 89.0409 162.223 86.2213 157.733 84.2841C153.537 82.4263 148.649 81.6115 144.056 81.2231C141.867 81.0419 139.651 81.0744 137.515 81.1601C134.766 81.3008 132.017 81.4414 129.321 81.8489C124.144 82.6901 119.346 85.3989 115.27 88.5865C110.954 91.9616 107.281 96.1092 104.062 100.442C100.523 105.257 97.227 110.578 94.9455 116.111C92.6379 121.856 91.934 128.319 94.432 134.132C96.6343 139.172 101.235 142.684 106.789 143.016C111.782 143.324 116.849 141.255 120.578 138.068C124.654 134.534 126.91 129.562 127.35 124.195C128.255 112.9 121.631 101.464 113.655 93.9835C109.534 90.0965 104.56 86.7992 99.0294 85.2118C93.0718 83.5722 87.0132 84.1754 81.3333 86.6463C75.2802 89.3318 69.8716 93.4839 64.7028 97.4485C59.1076 101.708 53.7 106.207 48.6403 111.052C38.4938 120.61 29.2578 131.232 21.1451 142.6C19.1502 145.435 17.2888 148.243 15.4544 151.184C13.8328 153.805 17.8443 156.464 19.4659 153.843C33.3441 131.862 51.4744 112.7 72.5787 97.5881C77.1886 94.2924 82.1717 90.7821 87.748 89.5128C92.6572 88.3787 97.7053 89.2999 102.116 91.5309C106.768 93.9214 110.808 97.4081 114.049 101.404C117.182 105.214 119.89 109.665 121.344 114.44C122.771 119.081 123.158 124.072 121.462 128.722C120.083 132.543 116.674 135.596 112.914 137.261C109.261 138.765 105.176 138.829 102.074 136.542C98.2216 133.642 97.2733 128.278 97.8753 123.711C98.6343 117.863 102.117 112.434 105.148 107.514C107.674 103.53 110.654 99.7311 113.982 96.2785C117.337 92.9594 121.093 89.9061 125.493 87.9725C129.706 86.1461 134.485 86.0802 139.023 85.8547C143.294 85.6834 147.513 86.2864 151.681 87.3167C155.607 88.1874 158.735 89.9145 162.052 92.2285C169.354 97.4152 175.328 105.302 178.127 113.971C178.88 116.318 179.34 118.586 179.694 121.015C179.884 122.296 181.301 123.12 182.502 122.876C183.836 122.606 184.553 121.349 184.363 120.068Z" fill="white"/>
<path d="M61.963 131.894C51.7543 138.061 41.0894 143.348 30.0757 147.942C27.3822 149.044 24.5553 150.173 21.8348 151.141C20.7946 151.49 19.5948 152.081 18.4202 152.111C17.5927 152.14 17.5386 151.873 17.5097 151.045C17.3997 149.817 17.5034 148.616 17.607 147.414C17.6566 145.946 17.8395 144.45 18.0225 142.955C18.2821 140.124 18.7553 137.32 19.3619 134.488C20.7338 128.238 22.7466 122.066 25.321 116.266C25.8519 115.116 24.9135 113.57 23.738 113.253C22.4021 112.829 21.2293 113.553 20.7254 114.836C18.2042 120.556 16.2175 126.514 14.8988 132.685C14.2129 135.81 13.6072 138.988 13.2683 142.113C12.9555 145.024 12.5364 148.095 12.7041 150.978C12.8728 154.208 14.7217 156.819 18.0859 156.97C21.1562 157.042 24.3021 155.432 27.0758 154.384C33.1299 152.046 39.1298 149.44 44.9423 146.595C51.4479 143.401 57.8463 140.021 64.0301 136.267C65.1497 135.623 65.7067 134.26 65.1163 133.061C64.6592 131.834 63.0023 131.197 61.963 131.894Z" fill="white"/>
</svg>
