<svg width="454" height="114" viewBox="0 0 454 114" fill="none" xmlns="http://www.w3.org/2000/svg">
<path d="M69.3681 57.1751C82.9366 77.1389 81.5535 99.394 66.2775 106.886C51.0015 114.378 27.6207 104.271 14.0522 84.3054C0.483608 64.3396 1.86675 42.0865 17.1427 34.5944C32.4187 27.1023 55.802 37.2114 69.3681 57.1751Z" stroke="white" stroke-width="8.34778" stroke-linecap="round" stroke-linejoin="round"/>
<path d="M41.7088 57.1751C28.1402 77.1389 29.5234 99.394 44.7994 106.886C60.0753 114.378 83.4586 104.269 97.0271 84.3054C110.596 64.3417 109.213 42.0865 93.9341 34.5944C78.663 27.1023 55.2773 37.2114 41.7088 57.1751Z" stroke="white" stroke-width="8.34778" stroke-linecap="round" stroke-linejoin="round"/>
<path d="M55.2096 42.2419C60.4793 46.2238 65.3559 51.268 69.3703 57.1761C82.9364 77.1398 81.5532 99.395 66.2772 106.887C63.0884 108.452 59.5458 109.25 55.8115 109.35" stroke="white" stroke-width="8.34778" stroke-linecap="round" stroke-linejoin="round"/>
<path d="M84.4549 26.1277H79.8674L67.2517 13.1053L71.457 4.67908H92.8653L97.0705 13.1053L84.4549 26.1277Z" stroke="white" stroke-width="8.37019" stroke-miterlimit="10"/>
<path d="M160.586 25.7965H160.672C165.987 25.7965 170.674 27.797 174.732 31.7979C176.18 33.3411 177.275 34.7985 178.018 36.1702L178.333 36.799C175.57 38.2469 173.932 39.0852 173.417 39.3138C172.941 38.3231 172.226 37.2848 171.274 36.1988C170.093 34.9605 169.207 34.1793 168.616 33.8554C166.12 32.1408 163.472 31.2835 160.672 31.2835C156.271 31.2835 152.498 33.1601 149.355 36.9133C147.126 39.9234 146.011 43.1813 146.011 46.6868C146.011 51.2021 147.726 55.1173 151.155 58.4323C153.975 60.8709 157.147 62.0902 160.672 62.0902C164.711 62.0902 168.245 60.4708 171.274 57.232C173.065 55.1173 174.227 52.8977 174.76 50.5734H164.244L164.187 50.4877V45.1436L164.215 45.1151V45.0579L175.618 45.0293H180.79L180.876 45.1151C180.743 48.03 180.562 49.9447 180.333 50.8592C179.704 53.8122 178.742 56.2508 177.447 58.1751C175.027 62.0235 171.626 64.786 167.244 66.4626C164.996 67.2437 162.786 67.6343 160.614 67.6343C155.699 67.6343 151.231 65.8625 147.211 62.3188C142.753 57.9179 140.524 52.7263 140.524 46.744V46.6297C140.524 40.7236 142.734 35.5606 147.154 31.1406C148.221 30.2261 148.888 29.6926 149.155 29.5402C152.622 27.0444 156.433 25.7965 160.586 25.7965Z" fill="white"/>
<path d="M192.078 54.117C192.078 56.1937 192.755 58.0798 194.107 59.7754C194.698 60.4422 195.155 60.8804 195.479 61.09C196.984 62.2331 198.623 62.8047 200.395 62.8047C202.566 62.8047 204.491 61.9854 206.167 60.347C206.834 59.6421 207.301 59.0324 207.568 58.518C208.349 57.1082 208.739 55.6507 208.739 54.1456V54.0599C208.739 51.8689 207.987 49.8971 206.482 48.1443C205.834 47.4584 205.396 47.0679 205.167 46.9726C204.843 46.7059 204.538 46.4963 204.253 46.3439C203.014 45.6771 201.728 45.3437 200.395 45.3437C198.375 45.3437 196.527 46.0962 194.85 47.6013C194.26 48.1919 193.888 48.6301 193.736 48.9159C192.631 50.4591 192.078 52.1928 192.078 54.117ZM200.395 39.8282C203.5 39.8282 206.339 40.8284 208.911 42.8288C209.273 43.0956 209.787 43.5719 210.454 44.2577C211.768 45.7247 212.702 47.2298 213.255 48.773C213.921 50.4877 214.255 52.269 214.255 54.117C214.255 56.5176 213.674 58.8228 212.511 61.0328C212.111 61.7568 211.568 62.5475 210.883 63.4048C210.14 64.2621 209.539 64.8622 209.082 65.2052C208.568 65.6243 208.082 65.9768 207.625 66.2626C205.358 67.6343 202.995 68.3201 200.537 68.3201H200.28C197.689 68.3201 195.203 67.5581 192.821 66.0339C192.364 65.691 191.955 65.3671 191.593 65.0623C190.85 64.4336 190.316 63.9001 189.992 63.4619C189.592 63.0047 189.221 62.5094 188.878 61.9759C188.497 61.3662 188.173 60.7756 187.906 60.2041C187.011 58.2227 186.563 56.2508 186.563 54.2885V53.8598C186.563 51.726 187.096 49.5827 188.163 47.4299C188.468 46.8392 188.83 46.2391 189.249 45.6295C189.573 45.1722 190.059 44.5911 190.707 43.8862C191.64 43.0289 192.307 42.4764 192.707 42.2287C195.051 40.6284 197.613 39.8282 200.395 39.8282Z" fill="white"/>
<path d="M224.543 25.7965C224.638 25.7965 224.828 26.4062 225.114 27.6255C225.438 28.6543 227.924 37.561 232.573 54.3457L233.345 57.032H233.402L243.661 27.9684C244.137 26.5967 244.414 25.8727 244.49 25.7965H248.234C248.291 25.7965 248.529 26.4252 248.948 27.6827L259.35 57.032H259.379L268.067 25.8251L268.124 25.7965H274.039L274.068 25.8251H274.096L262.494 66.3483C262.284 67.2056 262.151 67.6343 262.094 67.6343H257.293C257.197 67.52 256.064 64.3383 253.892 58.0893C253.359 56.6986 250.863 49.6399 246.405 36.9133C246.271 37.1038 245.928 38.0278 245.376 39.6853L235.459 67.6343H230.63C230.573 67.6343 230.325 66.796 229.887 65.1194L218.599 25.8251L218.627 25.7965H224.543Z" fill="white"/>
<path d="M283.984 50.5448H297.844V50.5162C297.521 49.5446 296.778 48.4396 295.615 47.2012C294.167 45.9629 292.586 45.3437 290.872 45.3437C288.261 45.3437 286.118 46.7249 284.442 49.4874L283.984 50.5448ZM290.5 39.8282H291.329C294.11 39.8282 296.787 40.9427 299.359 43.1718C300.617 44.4101 301.483 45.477 301.96 46.3725C303.35 48.8302 304.046 51.4022 304.046 54.0885V54.9458C304.046 55.4792 304.008 55.746 303.932 55.746H283.47C283.908 57.7845 284.632 59.3086 285.642 60.3184C287.185 61.9759 288.938 62.8047 290.9 62.8047C293.377 62.8047 295.453 61.5568 297.13 59.061C297.454 58.4323 297.644 58.1084 297.702 58.0893C300.979 59.5754 302.636 60.3374 302.674 60.3756C302.407 61.0424 301.807 62.0426 300.874 63.3762C298.073 66.6722 294.768 68.3201 290.957 68.3201H290.843C286.918 68.3201 283.546 66.5769 280.726 63.0904C278.783 60.366 277.812 57.3844 277.812 54.1456V54.0313C277.812 49.5732 279.517 45.8009 282.927 42.7145C285.442 40.7903 287.966 39.8282 290.5 39.8282Z" fill="white"/>
<path d="M331.28 54.0313C331.28 51.9737 330.642 50.1352 329.366 48.5158C329.232 48.3253 328.899 47.9728 328.365 47.4584C327.794 46.944 327.222 46.5439 326.651 46.2582C325.374 45.6485 324.184 45.3437 323.079 45.3437C320.602 45.3437 318.506 46.2963 316.792 48.2015C315.363 49.9352 314.648 51.8784 314.648 54.0313V54.1456C314.648 55.4411 314.924 56.6986 315.477 57.9179C315.801 58.6228 316.287 59.3563 316.934 60.1183C318.649 61.9092 320.669 62.8047 322.993 62.8047C324.136 62.8047 325.289 62.5379 326.451 62.0045C326.889 61.7949 327.413 61.4615 328.023 61.0043L328.537 60.547C328.994 60.0898 329.347 59.6897 329.594 59.3468C330.718 57.7655 331.28 56.0413 331.28 54.1742V54.0313ZM336.796 25.8251V67.6343H331.28V64.7765C330.956 65.1194 330.642 65.4338 330.337 65.7196C329.766 66.1959 329.261 66.5674 328.823 66.8341C328.251 67.177 327.603 67.4723 326.879 67.72C325.431 68.1201 324.203 68.3201 323.193 68.3201H322.821C320.364 68.3201 318.011 67.6248 315.763 66.234C315.305 65.9673 314.81 65.6243 314.277 65.2052C313.819 64.8432 313.219 64.2431 312.476 63.4048C311.79 62.5475 311.257 61.7568 310.876 61.0328C309.695 58.8228 309.104 56.508 309.104 54.0885C309.104 52.2595 309.438 50.4877 310.104 48.773C310.676 47.2489 311.619 45.7342 312.933 44.2292C313.6 43.5623 314.105 43.0956 314.448 42.8288C317.02 40.8284 319.849 39.8282 322.936 39.8282H322.964C325.632 39.8282 328.003 40.6569 330.08 42.3144C330.575 42.7145 330.966 43.1051 331.252 43.4861H331.28V25.8251L331.309 25.7965H336.767L336.796 25.8251Z" fill="white"/>
<path d="M366.088 54.0313C366.088 51.9737 365.45 50.1352 364.173 48.5158C364.04 48.3253 363.707 47.9728 363.173 47.4584C362.602 46.944 362.03 46.5439 361.458 46.2582C360.182 45.6485 358.991 45.3437 357.886 45.3437C355.409 45.3437 353.314 46.2963 351.599 48.2015C350.17 49.9352 349.456 51.8784 349.456 54.0313V54.1456C349.456 55.4411 349.732 56.6986 350.285 57.9179C350.608 58.6228 351.094 59.3563 351.742 60.1183C353.457 61.9092 355.476 62.8047 357.8 62.8047C358.944 62.8047 360.096 62.5379 361.258 62.0045C361.697 61.7949 362.22 61.4615 362.83 61.0043L363.345 60.547C363.802 60.0898 364.154 59.6897 364.402 59.3468C365.526 57.7655 366.088 56.0413 366.088 54.1742V54.0313ZM371.604 25.8251V67.6343H366.088V64.7765C365.764 65.1194 365.45 65.4338 365.145 65.7196C364.573 66.1959 364.069 66.5674 363.63 66.8341C363.059 67.177 362.411 67.4723 361.687 67.72C360.239 68.1201 359.01 68.3201 358.001 68.3201H357.629C355.171 68.3201 352.818 67.6248 350.57 66.234C350.113 65.9673 349.618 65.6243 349.084 65.2052C348.627 64.8432 348.027 64.2431 347.284 63.4048C346.598 62.5475 346.065 61.7568 345.684 61.0328C344.502 58.8228 343.912 56.508 343.912 54.0885C343.912 52.2595 344.245 50.4877 344.912 48.773C345.483 47.2489 346.427 45.7342 347.741 44.2292C348.408 43.5623 348.913 43.0956 349.256 42.8288C351.828 40.8284 354.657 39.8282 357.743 39.8282H357.772C360.439 39.8282 362.811 40.6569 364.888 42.3144C365.383 42.7145 365.774 43.1051 366.059 43.4861H366.088V25.8251L366.117 25.7965H371.575L371.604 25.8251Z" fill="white"/>
<path d="M386.15 40.2569V67.6057L386.121 67.6343H380.634L380.605 67.6057V40.2569H386.15ZM383.263 25.7965H383.492C384.33 25.7965 385.121 26.1204 385.864 26.7682C386.607 27.5303 386.978 28.3781 386.978 29.3116V29.4831C386.978 30.3404 386.654 31.1406 386.007 31.8836C385.245 32.6266 384.397 32.9981 383.463 32.9981H383.292C382.415 32.9981 381.615 32.6647 380.891 31.9979C380.491 31.5788 380.224 31.2072 380.091 30.8834C379.882 30.4071 379.777 29.9498 379.777 29.5116V29.283C379.777 28.4066 380.129 27.5874 380.834 26.8253L381.263 26.4538C381.93 26.0156 382.596 25.7965 383.263 25.7965Z" fill="white"/>
<path d="M407.583 40.2569H407.84C412.755 40.2569 416.28 42.1144 418.414 45.8295C419.157 47.2965 419.528 49.0207 419.528 51.0021V67.5486L419.471 67.6343H414.099L414.041 67.5486V50.9449C414.041 48.6015 413.06 47.0583 411.098 46.3153C410.279 45.9533 409.231 45.7723 407.954 45.7723H407.497C405.173 45.7723 403.525 46.1343 402.553 46.8583C401.296 47.6204 400.667 49.0302 400.667 51.0878V67.5486L400.581 67.6343H395.237L395.152 67.5486V40.4855L395.237 40.3997H400.581L400.667 40.4855V42.0287H400.696C401.667 41.4952 402.944 40.9999 404.525 40.5426C405.344 40.3521 406.364 40.2569 407.583 40.2569Z" fill="white"/>
<path d="M432.96 50.3734C432.96 51.6308 433.56 52.7548 434.76 53.7455C436.037 54.7172 437.485 55.203 439.104 55.203H439.218C440.647 55.203 441.971 54.8124 443.191 54.0313C444.181 53.3645 444.858 52.5072 445.22 51.4593C445.334 51.0783 445.391 50.7163 445.391 50.3734C445.391 49.0969 444.781 47.9633 443.562 46.9726C442.305 46.02 440.838 45.5437 439.161 45.5437C437.542 45.5437 436.094 46.0105 434.817 46.944C433.579 47.9347 432.96 49.0778 432.96 50.3734ZM432.017 70.4349V70.5206C432.017 71.378 432.636 72.1972 433.874 72.9783C435.551 73.95 437.608 74.4358 440.047 74.4358H440.361C442.514 74.4358 444.419 73.9881 446.077 73.0926C446.477 72.8831 446.896 72.5782 447.334 72.1781C448.039 71.4732 448.392 70.8159 448.392 70.2063C448.392 69.3489 447.763 68.625 446.506 68.0344C446.086 67.8439 445.544 67.6724 444.877 67.52C443.753 67.3104 442.772 67.2056 441.933 67.2056L438.733 67.2342C437.285 67.2342 435.951 67.1485 434.732 66.977C434.37 67.1485 433.989 67.3771 433.589 67.6629C432.541 68.5011 432.017 69.4252 432.017 70.4349ZM450.421 39.8568H451.507L451.535 39.8853V45.3723L451.507 45.4008H450.249C450.002 45.4008 449.773 45.4485 449.563 45.5437C450.459 47.0488 450.907 48.6587 450.907 50.3734C450.907 52.4119 450.268 54.298 448.992 56.0317C448.782 56.3556 448.354 56.8414 447.706 57.4892C446.506 58.5561 445.277 59.3277 444.019 59.804C442.457 60.4137 440.838 60.7185 439.161 60.7185C437.408 60.7185 435.703 60.3756 434.046 59.6897C433.665 59.9945 433.474 60.2517 433.474 60.4613V60.4899C433.474 60.9662 434.16 61.3091 435.532 61.5187C436.465 61.652 437.666 61.7187 439.133 61.7187L441.562 61.6901C445.277 61.6901 448.23 62.4236 450.421 63.8906C450.764 64.1002 451.221 64.4907 451.793 65.0623C452.307 65.6148 452.697 66.1292 452.964 66.6055C453.612 67.7867 453.936 68.987 453.936 70.2063C453.936 72.0924 453.202 73.8833 451.735 75.5789C451.088 76.2647 450.602 76.7125 450.278 76.922C449.592 77.4174 448.982 77.8079 448.449 78.0937C447.992 78.3414 447.439 78.5891 446.791 78.8367C446.22 79.0463 445.534 79.2559 444.734 79.4655C443.267 79.7893 441.895 79.9513 440.619 79.9513H439.79C437.58 79.9513 435.427 79.5798 433.331 78.8367C432.455 78.4938 431.683 78.1223 431.017 77.7222C430.521 77.4364 429.978 77.0459 429.388 76.5505C428.702 75.8837 428.302 75.455 428.187 75.2645C427.787 74.7311 427.501 74.2738 427.33 73.8928C426.778 72.7878 426.501 71.7114 426.501 70.6635V70.2063C426.501 69.5395 426.654 68.7488 426.958 67.8343C427.187 67.2437 427.482 66.6722 427.844 66.1197C428.073 65.7767 428.445 65.3385 428.959 64.8051L429.473 64.3193C428.921 63.481 428.645 62.5856 428.645 61.633V61.4329C428.645 60.1755 429.169 58.718 430.216 57.0605C429.492 56.2604 429.026 55.6507 428.816 55.2316C428.606 54.9458 428.349 54.4409 428.044 53.7169C427.644 52.5929 427.444 51.5355 427.444 50.5448V50.1733C427.444 48.4587 427.987 46.7535 429.073 45.0579C429.34 44.6578 429.683 44.2292 430.102 43.7719C430.788 43.086 431.264 42.6574 431.531 42.4859C432.198 41.9906 432.922 41.5619 433.703 41.1999C435.456 40.4188 437.227 40.0282 439.018 40.0282H439.333C441.485 40.0282 443.553 40.5712 445.534 41.6572C445.972 41.2571 446.344 40.9713 446.649 40.7998C447.754 40.1711 449.011 39.8568 450.421 39.8568Z" fill="white"/>
<path d="M142.458 101.521H142.494C143.014 101.521 143.468 101.733 143.855 102.156C144.145 102.519 144.29 102.888 144.29 103.262V103.371C144.29 103.891 144.066 104.345 143.619 104.732C143.28 105.01 142.894 105.149 142.458 105.149C141.999 105.149 141.582 104.979 141.207 104.641C140.844 104.254 140.663 103.843 140.663 103.408V103.262C140.663 102.803 140.862 102.38 141.261 101.993C141.612 101.678 142.011 101.521 142.458 101.521Z" fill="white"/>
<path d="M156.787 87.7908H157.259C159.121 87.7908 160.886 88.5102 162.555 89.9492C164.453 91.7993 165.403 94 165.403 96.5514C165.403 99.1391 164.405 101.376 162.41 103.262C160.765 104.629 158.97 105.312 157.023 105.312C154.931 105.312 153.039 104.538 151.346 102.99C149.556 101.14 148.661 99.0242 148.661 96.6421V96.4244C148.661 94.0544 149.55 91.9504 151.328 90.1124C153.033 88.5647 154.852 87.7908 156.787 87.7908ZM151.201 96.5332V96.6239C151.201 98.3289 151.842 99.8404 153.123 101.158C154.296 102.235 155.596 102.773 157.023 102.773C158.849 102.773 160.409 101.938 161.702 100.27C162.476 99.0846 162.863 97.8392 162.863 96.5332C162.863 94.7074 162.174 93.1294 160.796 91.7993C159.671 90.8198 158.45 90.3301 157.132 90.3301H156.86C155.421 90.3301 154.079 90.9528 152.833 92.1983C151.745 93.4679 151.201 94.9129 151.201 96.5332Z" fill="white"/>
<path d="M177.265 87.9177H177.573C180.971 87.9177 183.256 89.2176 184.429 91.8174C184.732 92.5913 184.883 93.4014 184.883 94.2479V105.094L184.828 105.149H182.38L182.343 105.094V94.2479C182.343 92.4704 181.43 91.2853 179.605 90.6928C179.181 90.5356 178.353 90.457 177.12 90.457C175.608 90.457 174.478 90.7714 173.728 91.4002C172.821 91.9927 172.368 92.9903 172.368 94.393V105.094L172.313 105.149H169.883L169.828 105.094V88.2261L169.883 88.1717H172.313L172.368 88.2261V89.9129C173.698 88.5828 175.33 87.9177 177.265 87.9177Z" fill="white"/>
<path d="M190.379 78.5949H192.882L192.9 78.613V105.131L192.882 105.149H190.379L190.36 105.131V78.613L190.379 78.5949Z" fill="white"/>
<path d="M198.649 87.9177H201.152L201.171 87.9359V105.131L201.152 105.149H198.649L198.631 105.131V87.9359L198.649 87.9177ZM199.828 78.5949H199.973C200.421 78.5949 200.844 78.7883 201.243 79.1753C201.557 79.5501 201.715 79.9431 201.715 80.3542V80.4449C201.715 80.9649 201.497 81.4183 201.062 81.8053C200.711 82.0834 200.342 82.2224 199.955 82.2224H199.846C199.314 82.2224 198.855 81.9867 198.468 81.5151C198.214 81.1765 198.087 80.8319 198.087 80.4812V80.3361C198.087 79.8766 198.281 79.4534 198.668 79.0665C199.042 78.7521 199.429 78.5949 199.828 78.5949Z" fill="white"/>
<path d="M214.339 87.9177H214.647C218.045 87.9177 220.33 89.2176 221.503 91.8174C221.805 92.5913 221.957 93.4014 221.957 94.2479V105.094L221.902 105.149H219.454L219.417 105.094V94.2479C219.417 92.4704 218.504 91.2853 216.678 90.6928C216.255 90.5356 215.427 90.457 214.194 90.457C212.682 90.457 211.551 90.7714 210.802 91.4002C209.895 91.9927 209.441 92.9903 209.441 94.393V105.094L209.387 105.149H206.957L206.902 105.094V88.2261L206.957 88.1717H209.387L209.441 88.2261V89.9129C210.772 88.5828 212.404 87.9177 214.339 87.9177Z" fill="white"/>
<path d="M234.145 87.7545C236.636 87.7545 238.77 88.8549 240.548 91.0556C241.721 92.7847 242.307 94.4716 242.307 96.1161V96.3337C242.307 96.89 242.271 97.1681 242.198 97.1681H228.432C228.432 97.7485 228.674 98.5647 229.157 99.6167C229.883 100.971 230.929 101.914 232.295 102.446C232.96 102.664 233.559 102.773 234.091 102.773C235.747 102.773 237.18 102.053 238.39 100.614C238.813 100.034 239.091 99.5683 239.224 99.2177H239.26C240.24 99.6046 241.007 99.9311 241.564 100.197C241.298 100.959 240.705 101.848 239.786 102.863C238.117 104.496 236.225 105.312 234.109 105.312C231.582 105.312 229.423 104.206 227.634 101.993C226.461 100.312 225.874 98.5284 225.874 96.6421V96.4788C225.874 94.0604 226.739 91.9444 228.468 90.1306C230.088 88.5465 231.981 87.7545 234.145 87.7545ZM228.686 94.665H239.532C239.024 93.081 238.166 91.9141 236.957 91.1644C236.074 90.5961 235.113 90.3119 234.073 90.3119C232.307 90.3119 230.802 91.1342 229.556 92.7787C229.169 93.347 228.879 93.9758 228.686 94.665Z" fill="white"/>
</svg>
