<svg width="318" height="101" viewBox="0 0 318 101" fill="none" xmlns="http://www.w3.org/2000/svg">
<path d="M0 72.261V51.4568L19.4421 33.39L6.84582 24.3566H0V8.75342H69.2797V24.3566H30.1216L69.2797 51.4568H45.2817L30.1216 44.0658L0 72.261Z" fill="#FFB22C"/>
<path d="M88.8385 31V8.55693H91.2485V21.6613L90.7062 21.3901L102.003 8.55693H105.016L95.948 18.8597L96.0685 17.1425L105.558 31H102.666L95.0141 19.9442L91.2485 24.2219V31H88.8385ZM112.593 31.3615C111.569 31.3615 110.655 31.1707 109.852 30.7891C109.048 30.3875 108.416 29.8452 107.954 29.1624C107.492 28.4795 107.261 27.6963 107.261 26.8126C107.261 25.9691 107.442 25.206 107.803 24.5231C108.165 23.8202 108.727 23.2278 109.49 22.7458C110.253 22.2638 111.227 21.9224 112.412 21.7215L118.738 20.6671V22.7156L112.954 23.6796C111.79 23.8805 110.946 24.252 110.424 24.7943C109.922 25.3365 109.671 25.9792 109.671 26.7223C109.671 27.4453 109.952 28.0578 110.514 28.5599C111.097 29.062 111.84 29.313 112.744 29.313C113.848 29.313 114.812 29.082 115.636 28.6201C116.459 28.1381 117.102 27.4955 117.564 26.6921C118.025 25.8888 118.256 24.9951 118.256 24.011V19.914C118.256 18.95 117.905 18.1668 117.202 17.5643C116.499 16.9618 115.585 16.6605 114.461 16.6605C113.477 16.6605 112.613 16.9116 111.87 17.4137C111.127 17.8957 110.575 18.5283 110.213 19.3115L108.165 18.1969C108.466 17.5141 108.938 16.8915 109.58 16.3292C110.243 15.7668 110.996 15.325 111.84 15.0037C112.683 14.6622 113.557 14.4915 114.461 14.4915C115.646 14.4915 116.69 14.7225 117.594 15.1844C118.518 15.6463 119.23 16.289 119.733 17.1124C120.255 17.9157 120.516 18.8496 120.516 19.914V31H118.256V27.7766L118.588 28.108C118.307 28.7105 117.865 29.2628 117.262 29.7649C116.68 30.2469 115.987 30.6385 115.184 30.9398C114.4 31.2209 113.537 31.3615 112.593 31.3615ZM125.163 31V14.853H127.422V17.504L127.121 17.1124C127.503 16.3492 128.075 15.7467 128.838 15.3049C129.622 14.8631 130.565 14.6422 131.67 14.6422H132.694V16.9015H131.278C130.114 16.9015 129.18 17.263 128.477 17.986C127.774 18.709 127.422 19.7333 127.422 21.0588V31H125.163ZM142.903 31.3615C141.377 31.3615 139.991 31 138.746 30.277C137.501 29.5339 136.507 28.5298 135.764 27.2645C135.041 25.9792 134.679 24.5231 134.679 22.8964C134.679 21.2897 135.041 19.8538 135.764 18.5885C136.487 17.3233 137.461 16.3292 138.686 15.6062C139.931 14.8631 141.337 14.4915 142.903 14.4915C144.47 14.4915 145.866 14.853 147.091 15.576C148.336 16.299 149.31 17.2932 150.013 18.5584C150.736 19.8237 151.097 21.2696 151.097 22.8964C151.097 24.5432 150.726 26.0093 149.983 27.2946C149.24 28.5599 148.245 29.554 147 30.277C145.775 31 144.41 31.3615 142.903 31.3615ZM142.903 29.1021C143.988 29.1021 144.962 28.831 145.825 28.2888C146.709 27.7465 147.402 27.0034 147.904 26.0595C148.426 25.1156 148.687 24.0612 148.687 22.8964C148.687 21.7316 148.426 20.6872 147.904 19.7634C147.402 18.8396 146.709 18.1065 145.825 17.5643C144.962 17.022 143.988 16.7509 142.903 16.7509C141.819 16.7509 140.835 17.022 139.951 17.5643C139.088 18.1065 138.395 18.8396 137.872 19.7634C137.35 20.6872 137.089 21.7316 137.089 22.8964C137.089 24.0612 137.35 25.1156 137.872 26.0595C138.395 27.0034 139.088 27.7465 139.951 28.2888C140.835 28.831 141.819 29.1021 142.903 29.1021ZM155.082 31V8.19543H157.341V31H155.082ZM92.5439 69L86.5189 46.5569H90.9171L95.6467 65.6863H94.502L99.4425 46.5569H103.69L108.6 65.6863H107.456L112.185 46.5569H116.584L110.559 69H105.859L100.888 50.3828H102.214L97.2433 69H92.5439ZM118.738 69V52.612H122.685V69H118.738ZM118.738 50.7744V46.5569H122.685V50.7744H118.738ZM132.564 69.3615C130.817 69.3615 129.291 68.9498 127.985 68.1264C126.7 67.2829 125.816 66.1482 125.334 64.7223L128.287 63.3064C128.708 64.2302 129.291 64.9532 130.034 65.4754C130.797 65.9975 131.641 66.2586 132.564 66.2586C133.287 66.2586 133.86 66.098 134.281 65.7766C134.703 65.4553 134.914 65.0336 134.914 64.5114C134.914 64.1901 134.824 63.929 134.643 63.7281C134.482 63.5072 134.251 63.3265 133.95 63.1859C133.669 63.0252 133.358 62.8947 133.016 62.7943L130.335 62.0411C128.949 61.6395 127.895 61.0269 127.172 60.2035C126.469 59.3801 126.118 58.4061 126.118 57.2814C126.118 56.2772 126.369 55.4036 126.871 54.6605C127.393 53.8974 128.106 53.3049 129.01 52.8832C129.933 52.4614 130.988 52.2505 132.173 52.2505C133.719 52.2505 135.085 52.6221 136.27 53.3652C137.455 54.1082 138.298 55.1526 138.8 56.4982L135.788 57.914C135.507 57.1709 135.035 56.5785 134.372 56.1367C133.709 55.6948 132.966 55.4739 132.143 55.4739C131.48 55.4739 130.958 55.6245 130.576 55.9258C130.195 56.227 130.004 56.6187 130.004 57.1007C130.004 57.4019 130.084 57.663 130.245 57.8839C130.405 58.1048 130.626 58.2856 130.907 58.4261C131.209 58.5667 131.55 58.6973 131.932 58.8178L134.553 59.601C135.898 60.0027 136.932 60.6052 137.655 61.4085C138.399 62.2118 138.77 63.1959 138.77 64.3608C138.77 65.3448 138.509 66.2185 137.987 66.9816C137.465 67.7247 136.742 68.3071 135.818 68.7289C134.894 69.1506 133.81 69.3615 132.564 69.3615ZM141.803 69V52.612H145.508V55.8354L145.207 55.263C145.589 54.279 146.211 53.5359 147.075 53.0338C147.958 52.5116 148.983 52.2505 150.147 52.2505C151.352 52.2505 152.417 52.5116 153.341 53.0338C154.285 53.556 155.018 54.289 155.54 55.2329C156.062 56.1567 156.323 57.2312 156.323 58.4563V69H152.377V59.3901C152.377 58.6671 152.236 58.0446 151.955 57.5224C151.674 57.0002 151.282 56.5986 150.78 56.3174C150.298 56.0162 149.726 55.8655 149.063 55.8655C148.42 55.8655 147.848 56.0162 147.346 56.3174C146.844 56.5986 146.452 57.0002 146.171 57.5224C145.89 58.0446 145.749 58.6671 145.749 59.3901V69H141.803ZM159.66 69V52.612H163.606V69H159.66ZM159.66 50.7744V46.5569H163.606V50.7744H159.66ZM175.022 69.3615C173.335 69.3615 171.859 68.9799 170.594 68.2168C169.329 67.4536 168.345 66.4193 167.642 65.1139C166.939 63.8085 166.587 62.3625 166.587 60.7759C166.587 59.1291 166.939 57.673 167.642 56.4078C168.365 55.1224 169.339 54.1082 170.564 53.3652C171.809 52.6221 173.195 52.2505 174.721 52.2505C176.006 52.2505 177.131 52.4614 178.095 52.8832C179.079 53.3049 179.913 53.8873 180.596 54.6304C181.278 55.3735 181.8 56.227 182.162 57.191C182.523 58.1349 182.704 59.1592 182.704 60.2638C182.704 60.5449 182.684 60.8361 182.644 61.1374C182.624 61.4386 182.574 61.6997 182.493 61.9206H169.841V58.9081H180.264L178.396 60.324C178.577 59.4002 178.527 58.5768 178.246 57.8538C177.985 57.1308 177.543 56.5584 176.92 56.1367C176.318 55.7149 175.585 55.504 174.721 55.504C173.898 55.504 173.165 55.7149 172.522 56.1367C171.879 56.5383 171.387 57.1408 171.046 57.9442C170.725 58.7274 170.604 59.6814 170.684 60.806C170.604 61.8102 170.735 62.7039 171.076 63.4871C171.438 64.2503 171.96 64.8428 172.643 65.2645C173.345 65.6863 174.149 65.8971 175.053 65.8971C175.956 65.8971 176.719 65.7063 177.342 65.3248C177.985 64.9432 178.487 64.4311 178.848 63.7884L182.041 65.3549C181.72 66.1381 181.218 66.831 180.535 67.4335C179.852 68.036 179.039 68.508 178.095 68.8494C177.171 69.1908 176.147 69.3615 175.022 69.3615ZM189.823 69L184.19 52.612H188.347L192.474 65.0536L191.028 65.0235L195.426 52.612H198.921L203.289 65.0235L201.843 65.0536L205.97 52.612H210.127L204.494 69H200.969L196.511 56.0162H197.836L193.317 69H189.823ZM218.526 69.3615C216.779 69.3615 215.253 68.9498 213.947 68.1264C212.662 67.2829 211.778 66.1482 211.296 64.7223L214.249 63.3064C214.67 64.2302 215.253 64.9532 215.996 65.4754C216.759 65.9975 217.602 66.2586 218.526 66.2586C219.249 66.2586 219.822 66.098 220.243 65.7766C220.665 65.4553 220.876 65.0336 220.876 64.5114C220.876 64.1901 220.786 63.929 220.605 63.7281C220.444 63.5072 220.213 63.3265 219.912 63.1859C219.631 63.0252 219.32 62.8947 218.978 62.7943L216.297 62.0411C214.911 61.6395 213.857 61.0269 213.134 60.2035C212.431 59.3801 212.08 58.4061 212.08 57.2814C212.08 56.2772 212.331 55.4036 212.833 54.6605C213.355 53.8974 214.068 53.3049 214.972 52.8832C215.895 52.4614 216.95 52.2505 218.135 52.2505C219.681 52.2505 221.047 52.6221 222.232 53.3652C223.417 54.1082 224.26 55.1526 224.762 56.4982L221.75 57.914C221.469 57.1709 220.997 56.5785 220.334 56.1367C219.671 55.6948 218.928 55.4739 218.105 55.4739C217.442 55.4739 216.92 55.6245 216.538 55.9258C216.156 56.227 215.966 56.6187 215.966 57.1007C215.966 57.4019 216.046 57.663 216.207 57.8839C216.367 58.1048 216.588 58.2856 216.869 58.4261C217.171 58.5667 217.512 58.6973 217.894 58.8178L220.515 59.601C221.86 60.0027 222.894 60.6052 223.617 61.4085C224.361 62.2118 224.732 63.1959 224.732 64.3608C224.732 65.3448 224.471 66.2185 223.949 66.9816C223.427 67.7247 222.704 68.3071 221.78 68.7289C220.856 69.1506 219.771 69.3615 218.526 69.3615ZM227.765 69V46.1954H231.711V61.1374L230.205 60.6855L237.917 52.612H242.827L236.772 59.2094L242.948 69H238.429L233.067 60.5048L235.417 60.0228L230.476 65.3248L231.711 62.9148V69H227.765ZM245.151 69V52.612H249.098V69H245.151ZM245.151 50.7744V46.5569H249.098V50.7744H245.151Z" fill="white"/>
</svg>
